<svg xmlns="http://www.w3.org/2000/svg" xmlns:xlink="http://www.w3.org/1999/xlink" width="500" zoomAndPan="magnify" viewBox="0 0 375 374.999991" height="500" preserveAspectRatio="xMidYMid meet" version="1.0"><defs><filter x="0%" y="0%" width="100%" height="100%" id="efc9552599"><feColorMatrix values="0 0 0 0 1 0 0 0 0 1 0 0 0 0 1 0 0 0 1 0" color-interpolation-filters="sRGB"/></filter><mask id="fc0cb56b15"><g filter="url(#efc9552599)"><rect x="-37.5" width="450" fill="#000000" y="-37.499999" height="449.999989" fill-opacity="0.46"/></g></mask><clipPath id="4b120d9d86"><path d="M 6 6 L 370 6 L 370 370 L 6 370 Z M 6 6 " clip-rule="nonzero"/></clipPath><clipPath id="fe8b7153a9"><path d="M 1.355469 140.769531 L 236.246094 0.960938 L 376.050781 235.851562 L 141.164062 375.660156 Z M 1.355469 140.769531 " clip-rule="nonzero"/></clipPath><clipPath id="7ec4517779"><path d="M 1.355469 140.769531 L 235.585938 1.355469 L 375 235.585938 L 140.769531 375 Z M 1.355469 140.769531 " clip-rule="nonzero"/></clipPath><clipPath id="054bdd8cab"><path d="M 14.246094 133.097656 L 222.695312 9.027344 C 229.8125 4.789062 239.019531 7.125 243.257812 14.246094 L 367.328125 222.695312 C 371.5625 229.8125 369.226562 239.019531 362.109375 243.257812 L 153.660156 367.328125 C 146.539062 371.5625 137.335938 369.226562 133.097656 362.109375 L 9.027344 153.660156 C 4.789062 146.539062 7.125 137.335938 14.246094 133.097656 Z M 14.246094 133.097656 " clip-rule="nonzero"/></clipPath><clipPath id="f643a87183"><rect x="0" width="375" y="0" height="375"/></clipPath><mask id="dc31133c41"><g filter="url(#efc9552599)"><rect x="-37.5" width="450" fill="#000000" y="-37.499999" height="449.999989" fill-opacity="0.5"/></g></mask><clipPath id="53a43edc91"><path d="M 16 16 L 360 16 L 360 360 L 16 360 Z M 16 16 " clip-rule="nonzero"/></clipPath><clipPath id="23f63d62bb"><path d="M 108.726562 12.570312 L 364.503906 108.996094 L 268.074219 364.773438 L 12.300781 268.347656 Z M 108.726562 12.570312 " clip-rule="nonzero"/></clipPath><clipPath id="b3d53c6540"><path d="M 108.726562 12.570312 L 363.785156 108.726562 L 267.628906 363.785156 L 12.570312 267.628906 Z M 108.726562 12.570312 " clip-rule="nonzero"/></clipPath><clipPath id="8a3b8726d6"><path d="M 122.761719 17.863281 L 349.746094 103.433594 C 357.5 106.359375 361.414062 115.011719 358.492188 122.761719 L 272.917969 349.746094 C 269.996094 357.5 261.34375 361.414062 253.59375 358.492188 L 26.605469 272.917969 C 18.855469 269.996094 14.941406 261.34375 17.863281 253.59375 L 103.433594 26.605469 C 106.359375 18.855469 115.011719 14.941406 122.761719 17.863281 Z M 122.761719 17.863281 " clip-rule="nonzero"/></clipPath><clipPath id="6684afedb9"><rect x="0" width="375" y="0" height="375"/></clipPath></defs><g mask="url(#fc0cb56b15)"><g transform="matrix(1, 0, 0, 1, 0, 0)"><g clip-path="url(#f643a87183)"><g clip-path="url(#4b120d9d86)"><g clip-path="url(#fe8b7153a9)"><g clip-path="url(#7ec4517779)"><g clip-path="url(#054bdd8cab)"><path stroke-linecap="butt" transform="matrix(1.689855, -1.005805, 1.005805, 1.689855, 1.355501, 140.769497)" fill="none" stroke-linejoin="miter" d="M 7.628051 0.000290478 L 130.981604 -0.000117721 C 135.19387 -0.00104299 138.609485 3.414268 138.609394 7.62824 L 138.609802 130.981794 C 138.609021 135.193043 135.19371 138.608658 130.981445 138.609584 L 7.627891 138.609992 C 3.414935 138.608194 0.00102645 135.193899 0.000101181 130.981634 L -0.000307019 7.62808 C -0.000216336 3.414108 3.414079 0.000199795 7.628051 0.000290478 Z M 7.628051 0.000290478 " stroke="#37185d" stroke-width="3.051054" stroke-opacity="1" stroke-miterlimit="4"/></g></g></g></g></g></g></g><g mask="url(#dc31133c41)"><g transform="matrix(1, 0, 0, 1, 0, 0)"><g clip-path="url(#6684afedb9)"><g clip-path="url(#53a43edc91)"><g clip-path="url(#23f63d62bb)"><g clip-path="url(#b3d53c6540)"><g clip-path="url(#8a3b8726d6)"><path stroke-linecap="butt" transform="matrix(1.840112, 0.693716, -0.693716, 1.840112, 108.726787, 12.571209)" fill="none" stroke-linejoin="miter" d="M 7.627387 0.000450886 L 130.980589 -0.000532628 C 135.194876 0.000696662 138.609336 3.415531 138.609265 7.627258 L 138.60839 130.981162 C 138.609019 135.194748 135.194185 138.609208 130.982457 138.609137 L 7.626695 138.608962 C 3.414968 138.608891 0.000507755 135.194056 0.00057909 130.982329 L -0.00110514 7.627268 C 0.000824866 3.41484 3.415659 0.000379551 7.627387 0.000450886 Z M 7.627387 0.000450886 " stroke="#37185d" stroke-width="3.051054" stroke-opacity="1" stroke-miterlimit="4"/></g></g></g></g></g></g></g><path fill="#8f4bdc" d="M 79.308594 68.523438 C 29.558594 118.269531 95.320312 225.511719 190.101562 206.472656 C 142.84375 198.085938 141.539062 156.601562 155.566406 116.464844 C 161.238281 100.242188 157.589844 81.484375 144.628906 68.523438 C 126.589844 50.488281 97.34375 50.488281 79.308594 68.523438 " fill-opacity="1" fill-rule="evenodd"/><path fill="#e2dafa" d="M 297.03125 307.824219 C 346.78125 258.074219 281.023438 150.835938 186.238281 169.875 C 233.496094 178.261719 234.800781 219.742188 220.773438 259.882812 C 215.101562 276.101562 218.75 294.859375 231.710938 307.824219 C 249.746094 325.859375 279 325.859375 297.03125 307.824219 " fill-opacity="1" fill-rule="evenodd"/><path fill="#b595f0" d="M 307.820312 79.308594 C 258.074219 29.558594 150.835938 95.320312 169.871094 190.101562 C 178.261719 142.84375 219.742188 141.539062 259.882812 155.566406 C 276.101562 161.238281 294.859375 157.589844 307.820312 144.628906 C 325.855469 126.59375 325.855469 97.34375 307.820312 79.308594 " fill-opacity="1" fill-rule="evenodd"/><path fill="#37185d" d="M 68.523438 297.035156 C 118.269531 346.78125 225.511719 281.023438 206.472656 186.238281 C 198.082031 233.496094 156.605469 234.800781 116.464844 220.777344 C 100.246094 215.101562 81.484375 218.75 68.523438 231.714844 C 50.488281 249.75 50.488281 279 68.523438 297.035156 " fill-opacity="1" fill-rule="evenodd"/></svg>