<svg width="166" height="178" viewBox="0 0 166 178" fill="none" xmlns="http://www.w3.org/2000/svg">
<mask id="mask0_22_85" style="mask-type:luminance" maskUnits="userSpaceOnUse" x="0" y="0" width="166" height="177">
<path d="M0 0H165.312V176.521H0V0Z" fill="white"/>
</mask>
<g mask="url(#mask0_22_85)">
<path d="M139.604 66.9114C143.682 69.5677 148.995 69.9947 153.729 69.4062C156.286 69.0937 158.995 68.5729 161.234 67.2395C163.312 65.9947 164.88 63.9166 164.875 61.427C164.875 58.6979 162.74 56.8281 160.193 56.3385C158.87 56.1145 157.547 56.0989 156.219 56.2916C154.635 56.4739 153 56.7864 151.411 56.5208C151.146 56.4531 150.896 56.4895 150.661 56.6249C150.422 56.7604 150.266 56.9583 150.187 57.2187C150.115 57.4791 150.146 57.7343 150.281 57.9739C150.417 58.2135 150.615 58.3697 150.88 58.4427C153.396 58.8593 155.807 58.1145 158.318 58.1406C159.932 58.1406 161.995 58.6145 162.677 60.2864C163.359 61.9583 162.333 63.9687 160.979 65.026C159.276 66.3593 156.995 66.8749 154.911 67.2395C152.448 67.6614 149.974 67.7395 147.49 67.4739C145.589 67.2968 143.776 66.802 142.052 65.9895C139.141 64.5572 136.406 61.7708 137.396 58.2656C138.448 54.552 142.937 52.5624 146.443 52.1145C147.271 52.0104 147.807 51.0781 147.146 50.4114C141.823 45.0104 139.323 37.3697 139.672 29.8854C140.01 22.2916 143.469 15.1562 148.63 9.6614C151.115 7.02598 153.911 4.7864 157.026 2.93744C156.068 9.32807 156.344 15.6666 157.854 21.9479C159.328 28.0833 161.974 34.3593 160.875 40.7812C160.365 43.7708 159.099 46.5989 156.719 48.5729C156.526 48.7656 156.432 49.0052 156.432 49.276C156.432 49.552 156.526 49.7864 156.719 49.9843C156.917 50.1718 157.151 50.2656 157.427 50.2656C157.698 50.2656 157.932 50.1718 158.13 49.9843C162.703 46.1458 163.599 39.6458 162.828 34.0416C162.349 30.5468 161.297 27.177 160.37 23.7864C159.401 20.3437 158.786 16.8437 158.531 13.276C158.281 9.25515 158.542 5.26036 159.312 1.30203C159.411 0.874942 159.286 0.531192 158.943 0.270776C158.599 0.00515095 158.234 -0.0208907 157.849 0.182235C150.76 3.92182 144.661 9.77078 141.062 16.9687C140.156 18.7551 139.427 20.6145 138.875 22.5416C138.323 24.4687 137.958 26.427 137.776 28.427C137.594 30.4218 137.599 32.4166 137.797 34.4114C137.995 36.4062 138.375 38.3645 138.943 40.2864C140.073 44.0781 141.922 47.4739 144.484 50.4843C141.214 51.2656 137.911 53.0104 136.24 55.9427C129.229 46.9062 117.766 40.4374 106.104 41.7395C99.3646 42.4947 93.7396 46.1562 87.7448 48.9999C82.7552 51.3541 76.9791 52.8593 71.6406 50.7187C70.4583 50.2708 69.4114 49.6041 68.5052 48.7187C67.5989 47.8385 66.9062 46.8124 66.427 45.6406C65.177 42.4791 65.5312 38.9427 65.177 35.6197C64.5468 29.7083 61.2239 24.7083 56.3281 21.401C44.9843 13.7343 30.276 18.3072 20.3489 26.1354C15.3385 30.0989 11.3073 34.8906 8.24997 40.5052C4.84372 46.7708 3.10413 53.7291 2.08851 60.7447C-0.0156597 75.2864 -0.541702 90.2812 3.40622 104.552C6.93226 117.302 13.5 129.151 22.0989 139.172C30.6979 149.193 41.4687 157.427 53.1666 163.641C65.677 170.286 79.6354 175.245 93.8593 176.135C100.526 176.505 107.125 176 113.656 174.609C118.958 173.51 124.104 171.573 128.437 168.276C130.693 166.547 132.698 164.568 134.464 162.338C135.26 161.349 133.859 159.927 133.057 160.927C129.641 165.312 125.354 168.547 120.198 170.63C115.016 172.672 109.427 173.474 103.917 173.995C89.6198 175.354 75.25 171.531 62.2552 165.828C50.4062 160.625 39.3229 153.526 29.9635 144.547C20.6093 135.562 13.0781 124.771 8.27601 112.75C5.86455 106.74 4.18747 100.526 3.24476 94.1197C2.18747 86.7187 2.29684 79.1822 2.88017 71.7447C3.44788 64.5416 4.25517 57.2447 6.34372 50.3072C8.19267 44.0729 11.2396 38.4843 15.4843 33.552C19.6875 28.6406 24.7291 24.8541 30.6198 22.1874C36.4687 19.6041 43.2864 18.4947 49.5104 20.3541C54.7708 21.927 59.526 25.6197 61.8541 30.6666C63.1458 33.4583 63.276 36.4583 63.427 39.4843C63.5729 42.6041 63.875 45.8906 65.7239 48.5312C68.7239 52.8177 74.2916 54.1041 79.25 53.6458C85.526 53.052 90.8854 49.5416 96.4166 46.8489C99.2916 45.4531 102.286 44.302 105.464 43.8333C108.26 43.4427 111.047 43.5052 113.823 44.0312C119.677 45.1822 124.865 47.7083 129.375 51.6145C131.531 53.4427 133.448 55.4999 135.13 57.776C135.208 57.8802 135.297 57.9687 135.406 58.0416C135.047 59.4791 135.125 60.901 135.641 62.2916C136.458 64.2656 137.781 65.8072 139.604 66.9114Z" fill="#4608C2"/>
</g>
<mask id="mask1_22_85" style="mask-type:luminance" maskUnits="userSpaceOnUse" x="136" y="68" width="28" height="110">
<path d="M136 68.5208H164V177.828H136V68.5208Z" fill="white"/>
</mask>
<g mask="url(#mask1_22_85)">
<path d="M160.766 75.3281C160.516 73.4948 160.24 71.6614 159.938 69.8385C159.859 69.5729 159.703 69.375 159.464 69.2396C159.229 69.1042 158.974 69.0677 158.708 69.1406C158.443 69.2187 158.24 69.3802 158.104 69.6198C157.969 69.8646 157.938 70.1198 158.01 70.3854C159.203 77.3385 159.932 84.3698 160.547 91.3906C161.13 98.0417 161.521 104.687 161.641 111.37C161.766 117.995 161.563 124.604 161.021 131.203C160.484 137.719 159.5 144.167 158.073 150.547C156.641 156.932 154.667 163.146 152.151 169.193C151.531 170.651 150.906 172.135 150.182 173.547C149.766 174.354 149.021 175.734 147.922 175.594C147.229 175.51 146.656 174.88 146.203 174.406C145.74 173.922 145.323 173.396 144.953 172.839C144.182 171.656 143.578 170.401 143.135 169.062C142.203 166.302 141.807 163.401 141.474 160.516C141.057 156.859 140.698 153.198 140.391 149.536C139.786 142.208 139.401 134.865 139.229 127.516C139.063 120.167 139.109 112.812 139.385 105.453C139.662 98.0677 140.151 90.6979 140.865 83.3385C141.036 81.5573 141.219 79.7812 141.417 78.0052C141.417 77.7344 141.318 77.5 141.125 77.3021C140.932 77.1094 140.698 77.0104 140.422 77.0104C140.151 77.0156 139.917 77.1146 139.724 77.3073C139.531 77.5 139.432 77.7344 139.427 78.0052C138.594 85.4844 137.984 92.9896 137.599 100.521C137.214 108.052 137.068 115.604 137.151 123.177C137.24 130.703 137.552 138.229 138.099 145.74C138.375 149.516 138.708 153.281 139.099 157.047C139.432 160.297 139.719 163.578 140.422 166.771C141.068 169.708 142.146 172.568 144.036 174.937C145.005 176.156 146.26 177.432 147.901 177.568C149.422 177.677 150.62 176.568 151.396 175.391C152.188 174.062 152.854 172.677 153.412 171.234C154.094 169.672 154.74 168.089 155.349 166.49C156.547 163.354 157.594 160.167 158.5 156.932C160.292 150.437 161.583 143.844 162.38 137.156C163.182 130.406 163.599 123.635 163.625 116.839C163.677 110.042 163.406 103.24 162.917 96.4583C162.422 89.4062 161.734 82.3437 160.766 75.3281Z" fill="#4608C2"/>
</g>
<path d="M36.1615 67.0469C39.5104 65 41.5104 61.2291 40.8177 57.3125C40.0938 53.2291 36.6615 49.2552 32.5052 48.4896C32.4063 48.4531 32.3021 48.4375 32.1979 48.4427C28.0677 48.7291 24.099 51.2031 22.4479 55.0885C20.9011 58.7448 21.7083 63.401 24.6823 66.1146C27.849 69.0208 32.5521 69.2552 36.1615 67.0469ZM23.9063 56.9739C24.8438 53.2916 28.4323 50.7396 32.1302 50.4427C35.1198 51.0625 37.5521 53.5833 38.5261 56.4219C39.0677 57.875 39.1302 59.3541 38.7136 60.8541C38.2292 62.3541 37.375 63.5989 36.1511 64.5937C35.5365 65.1302 34.849 65.5625 34.099 65.8854C33.3438 66.2083 32.5625 66.4062 31.7448 66.4844C30.9271 66.5573 30.1198 66.5052 29.3229 66.3229C28.5261 66.1406 27.7708 65.8437 27.0677 65.4219C24.2865 63.6979 23.125 60.0833 23.9063 56.9739Z" fill="#4608C2"/>
<path d="M30.25 108.146C33.4167 111.052 38.1146 111.292 41.724 109.089C45.0729 107.036 47.0781 103.271 46.3854 99.3542C45.6615 95.2708 42.2292 91.2865 38.0729 90.5261C37.974 90.4948 37.8698 90.4792 37.7656 90.4844C33.6094 90.7708 29.6615 93.2396 28.0156 97.1302C26.4687 100.771 27.2813 105.427 30.25 108.146ZM29.474 99.0052C30.4062 95.3229 34 92.7708 37.6979 92.4792C40.6823 93.0938 43.099 95.6146 44.0885 98.4531C44.6302 99.9063 44.6927 101.385 44.276 102.885C43.7969 104.385 42.9427 105.63 41.7188 106.625C41.099 107.161 40.4167 107.589 39.6615 107.911C38.9115 108.234 38.125 108.432 37.3073 108.505C36.4948 108.578 35.6875 108.521 34.8854 108.339C34.0885 108.156 33.3385 107.854 32.6354 107.432C29.849 105.74 28.6875 102.125 29.474 99.0104V99.0052Z" fill="#4608C2"/>
<path d="M66.2499 124.276C66.151 124.24 66.0468 124.224 65.9374 124.229C61.8072 124.516 57.8385 126.99 56.1926 130.875C54.6405 134.531 55.453 139.187 58.4218 141.901C61.5885 144.812 66.2916 145.052 69.901 142.844C73.2499 140.792 75.2499 137.031 74.5572 133.115C73.8333 129.005 70.4218 125.026 66.2499 124.276ZM72.453 136.641C71.9739 138.146 71.1197 139.401 69.8905 140.401C69.2708 140.937 68.5885 141.37 67.8333 141.687C67.0833 142.01 66.2968 142.208 65.4791 142.281C64.6666 142.354 63.8593 142.297 63.0572 142.115C62.2603 141.932 61.5103 141.63 60.8072 141.208C58.0208 139.484 56.8593 135.87 57.6458 132.76C58.5833 129.078 62.1718 126.526 65.8697 126.234C68.8593 126.849 71.2916 129.37 72.2603 132.208C72.802 133.661 72.8697 135.135 72.453 136.63V136.641Z" fill="#4608C2"/>
<path d="M107.99 133.328C107.891 133.292 107.786 133.276 107.677 133.276C103.547 133.562 99.5781 136.042 97.9323 139.927C96.3802 143.583 97.1927 148.234 100.167 150.953C103.328 153.859 108.031 154.099 111.635 151.896C114.99 149.849 116.99 146.078 116.297 142.161C115.573 138.062 112.156 134.089 107.99 133.328ZM114.193 145.687C113.708 147.187 112.854 148.432 111.63 149.427C111.016 149.969 110.328 150.396 109.578 150.719C108.823 151.042 108.042 151.245 107.224 151.318C106.411 151.391 105.604 151.339 104.802 151.156C104.005 150.979 103.255 150.677 102.547 150.26C99.7604 148.531 98.599 144.917 99.3854 141.802C100.318 138.125 103.906 135.573 107.609 135.276C110.599 135.891 113.031 138.417 114.005 141.25C114.542 142.708 114.604 144.187 114.193 145.687Z" fill="#4608C2"/>
<path d="M120.495 94.849C121.286 93.4115 121.854 91.8854 122.193 90.2813C122.807 87.0417 122.734 83.8177 121.974 80.6094C120.505 73.8281 116.838 66.2396 109.661 64.1406C108.812 63.8906 107.943 63.7448 107.057 63.6875C106.802 63.6771 106.578 63.7604 106.396 63.9427C100.312 64.6354 95.2968 69.7031 93.7864 75.5417C91.9583 82.6406 94.6822 90.4427 99.3177 95.9011C101.359 98.3073 104.036 100.396 107.146 101.182C110.687 102.089 114.302 101.057 117.208 98.9375C118.583 97.9427 119.703 96.3177 120.495 94.849ZM116.12 97.2708C115.38 97.8281 114.594 98.2917 113.745 98.6615C112.354 99.3073 110.896 99.5938 109.365 99.5208C106.588 99.3802 104.088 97.8594 102.125 95.9792C99.875 93.7604 98.1458 91.1823 96.9427 88.2604C95.5833 85.1458 95.026 81.8958 95.2812 78.5052C95.7916 72.8646 99.7604 67.4063 105.432 66.1042C106.088 65.9531 106.755 65.8698 107.427 65.8542C107.573 65.849 107.708 65.8177 107.844 65.7604C114.234 66.6667 117.833 73.2344 119.474 78.9167C121.099 84.474 121.271 90.724 117.646 95.5625C117.208 96.1979 116.698 96.7656 116.12 97.2708Z" fill="#4608C2"/>
</svg>
